<svg width="257" height="92" viewBox="0 0 257 92" fill="none" xmlns="http://www.w3.org/2000/svg">
<path d="M97.0061 53.8334H87.2031L85.6316 58.473H78.9341L88.4378 32.2069H95.8462L105.35 58.473H98.5776L97.0061 53.8334ZM95.3598 48.8945L92.1046 39.2785L88.8868 48.8945H95.3598ZM106.97 48.0339C106.97 45.8638 107.407 43.968 108.28 42.3467C109.178 40.7253 110.412 39.4781 111.984 38.605C113.58 37.732 115.401 37.2955 117.447 37.2955C120.066 37.2955 122.248 37.9814 123.995 39.3534C125.766 40.7253 126.925 42.6585 127.474 45.1529H120.665C120.091 43.5565 118.981 42.7582 117.334 42.7582C116.162 42.7582 115.227 43.2197 114.528 44.1426C113.83 45.0406 113.481 46.3377 113.481 48.0339C113.481 49.7301 113.83 51.0397 114.528 51.9626C115.227 52.8606 116.162 53.3096 117.334 53.3096C118.981 53.3096 120.091 52.5114 120.665 50.915H127.474C126.925 53.3595 125.766 55.2802 123.995 56.677C122.224 58.0739 120.041 58.7724 117.447 58.7724C115.401 58.7724 113.58 58.3358 111.984 57.4628C110.412 56.5897 109.178 55.3425 108.28 53.7212C107.407 52.0998 106.97 50.2041 106.97 48.0339ZM150.578 47.6972C150.578 48.2958 150.54 48.9194 150.465 49.568H135.985C136.085 50.8651 136.497 51.8628 137.22 52.5613C137.968 53.2348 138.879 53.5715 139.951 53.5715C141.548 53.5715 142.658 52.898 143.281 51.551H150.091C149.742 52.923 149.106 54.1577 148.183 55.2552C147.285 56.3528 146.15 57.2133 144.778 57.8369C143.406 58.4606 141.872 58.7724 140.176 58.7724C138.13 58.7724 136.31 58.3358 134.713 57.4628C133.117 56.5897 131.869 55.3425 130.971 53.7212C130.074 52.0998 129.625 50.2041 129.625 48.0339C129.625 45.8638 130.061 43.968 130.934 42.3467C131.832 40.7253 133.079 39.4781 134.676 38.605C136.272 37.732 138.106 37.2955 140.176 37.2955C142.196 37.2955 143.992 37.7195 145.564 38.5676C147.135 39.4157 148.358 40.6255 149.231 42.197C150.129 43.7685 150.578 45.6019 150.578 47.6972ZM144.03 46.0134C144.03 44.9159 143.656 44.0429 142.907 43.3943C142.159 42.7458 141.224 42.4215 140.101 42.4215C139.028 42.4215 138.118 42.7333 137.37 43.3569C136.646 43.9805 136.197 44.866 136.023 46.0134H144.03ZM178.61 32.2069L169.294 58.473H161.286L151.97 32.2069H158.78L165.29 52.0374L171.838 32.2069H178.61ZM180.012 47.9965C180.012 45.8513 180.411 43.968 181.209 42.3467C182.033 40.7253 183.143 39.4781 184.539 38.605C185.936 37.732 187.495 37.2955 189.216 37.2955C190.688 37.2955 191.973 37.5948 193.07 38.1935C194.193 38.7921 195.053 39.5779 195.652 40.5507V37.5948H202.05V58.473H195.652V55.5171C195.028 56.49 194.155 57.2757 193.033 57.8744C191.935 58.473 190.651 58.7724 189.179 58.7724C187.483 58.7724 185.936 58.3358 184.539 57.4628C183.143 56.5648 182.033 55.3051 181.209 53.6838C180.411 52.0374 180.012 50.1417 180.012 47.9965ZM195.652 48.0339C195.652 46.4375 195.203 45.1778 194.305 44.2549C193.432 43.332 192.359 42.8705 191.087 42.8705C189.815 42.8705 188.73 43.332 187.832 44.2549C186.959 45.1529 186.522 46.4001 186.522 47.9965C186.522 49.5929 186.959 50.8651 187.832 51.8129C188.73 52.7359 189.815 53.1973 191.087 53.1973C192.359 53.1973 193.432 52.7359 194.305 51.8129C195.203 50.89 195.652 49.6303 195.652 48.0339ZM227.295 37.5948V58.473H220.897V55.6294C220.249 56.5523 219.363 57.3006 218.241 57.8744C217.143 58.4231 215.921 58.6975 214.574 58.6975C212.977 58.6975 211.568 58.3483 210.346 57.6499C209.123 56.9265 208.176 55.8913 207.502 54.5443C206.829 53.1973 206.492 51.6134 206.492 49.7925V37.5948H212.853V48.9319C212.853 50.3288 213.214 51.4138 213.938 52.1871C214.661 52.9604 215.634 53.347 216.856 53.347C218.103 53.347 219.089 52.9604 219.812 52.1871C220.535 51.4138 220.897 50.3288 220.897 48.9319V37.5948H227.295ZM238.289 30.7851V58.473H231.891V30.7851H238.289ZM254.562 53.0477V58.473H251.307C248.987 58.473 247.179 57.9118 245.882 56.7893C244.585 55.6419 243.936 53.7835 243.936 51.2143V42.9079H241.392V37.5948H243.936V32.5062H250.334V37.5948H254.525V42.9079H250.334V51.2891C250.334 51.9127 250.484 52.3617 250.783 52.6361C251.083 52.9105 251.581 53.0477 252.28 53.0477H254.562Z" fill="white"/>
<path d="M33.9846 41.3344L51.88 65.3367L52.2093 65.2229L51.4884 35.2869L59.807 32.4128L59.8344 72.1329L50.164 75.474L25.6487 44.2145L33.9846 41.3344Z" fill="white"/>
<path d="M25.6753 56.2885L24.9394 26.3584L25.2687 26.2446L43.1795 50.2423L51.4983 47.3689L27.0028 16.1015L17.3322 19.4419L17.3391 59.1679L25.6753 56.2885Z" fill="white"/>
</svg>
